<mxfile host="Electron" agent="Mozilla/5.0 (Macintosh; Intel Mac OS X 10_15_7) AppleWebKit/537.36 (KHTML, like Gecko) draw.io/28.0.6 Chrome/138.0.7204.100 Electron/37.2.3 Safari/537.36" version="28.0.6">
  <diagram name="Page-1" id="RspSwc91z6_WqIq_Tpef">
    <mxGraphModel dx="946" dy="679" grid="0" gridSize="10" guides="1" tooltips="1" connect="1" arrows="1" fold="1" page="1" pageScale="1" pageWidth="850" pageHeight="1100" math="0" shadow="0">
      <root>
        <mxCell id="0" />
        <mxCell id="1" parent="0" />
        <mxCell id="IUhoo2JESZdmN7GC_JUy-1" value="" style="edgeStyle=orthogonalEdgeStyle;rounded=1;orthogonalLoop=1;jettySize=auto;html=1;sketch=1;curveFitting=1;jiggle=2;" parent="1" source="IUhoo2JESZdmN7GC_JUy-2" target="IUhoo2JESZdmN7GC_JUy-4" edge="1">
          <mxGeometry relative="1" as="geometry" />
        </mxCell>
        <mxCell id="IUhoo2JESZdmN7GC_JUy-2" value="&lt;font face=&quot;Times New Roman&quot;&gt;Client&lt;/font&gt;" style="rounded=1;whiteSpace=wrap;html=1;fontSize=16;arcSize=40;absoluteArcSize=0;sketch=1;curveFitting=1;jiggle=2;" parent="1" vertex="1">
          <mxGeometry x="290" y="170" width="120" height="50" as="geometry" />
        </mxCell>
        <mxCell id="IUhoo2JESZdmN7GC_JUy-3" value="" style="edgeStyle=orthogonalEdgeStyle;rounded=1;orthogonalLoop=1;jettySize=auto;html=1;fillColor=#dae8fc;strokeColor=#6c8ebf;sketch=1;curveFitting=1;jiggle=2;" parent="1" source="IUhoo2JESZdmN7GC_JUy-4" target="IUhoo2JESZdmN7GC_JUy-6" edge="1">
          <mxGeometry relative="1" as="geometry" />
        </mxCell>
        <mxCell id="IUhoo2JESZdmN7GC_JUy-4" value="&lt;font face=&quot;Times New Roman&quot;&gt;cinder-api&lt;/font&gt;" style="rounded=1;whiteSpace=wrap;html=1;fillColor=#bac8d3;strokeColor=#23445d;fontSize=16;arcSize=40;sketch=1;curveFitting=1;jiggle=2;" parent="1" vertex="1">
          <mxGeometry x="290" y="252" width="120" height="50" as="geometry" />
        </mxCell>
        <mxCell id="IUhoo2JESZdmN7GC_JUy-5" value="" style="edgeStyle=orthogonalEdgeStyle;rounded=1;orthogonalLoop=1;jettySize=auto;html=1;fillColor=#dae8fc;strokeColor=#6c8ebf;sketch=1;curveFitting=1;jiggle=2;" parent="1" source="IUhoo2JESZdmN7GC_JUy-6" target="IUhoo2JESZdmN7GC_JUy-9" edge="1">
          <mxGeometry relative="1" as="geometry" />
        </mxCell>
        <mxCell id="IUhoo2JESZdmN7GC_JUy-6" value="&lt;font face=&quot;Times New Roman&quot;&gt;cinder-scheduler&lt;/font&gt;" style="rounded=1;whiteSpace=wrap;html=1;fillColor=#bac8d3;strokeColor=#23445d;fontSize=16;arcSize=40;sketch=1;curveFitting=1;jiggle=2;" parent="1" vertex="1">
          <mxGeometry x="290" y="330" width="120" height="50" as="geometry" />
        </mxCell>
        <mxCell id="IUhoo2JESZdmN7GC_JUy-7" value="REST API" style="text;html=1;align=center;verticalAlign=middle;resizable=0;points=[];autosize=1;strokeColor=none;fillColor=none;fontFamily=Times New Roman;rounded=1;fontColor=#F19C99;sketch=1;curveFitting=1;jiggle=2;" parent="1" vertex="1">
          <mxGeometry x="354" y="222" width="70" height="30" as="geometry" />
        </mxCell>
        <mxCell id="IUhoo2JESZdmN7GC_JUy-8" value="RPC" style="text;html=1;align=center;verticalAlign=middle;resizable=0;points=[];autosize=1;strokeColor=none;fillColor=none;fontColor=#6C8EBF;rounded=1;sketch=1;curveFitting=1;jiggle=2;" parent="1" vertex="1">
          <mxGeometry x="351" y="300" width="50" height="30" as="geometry" />
        </mxCell>
        <mxCell id="IUhoo2JESZdmN7GC_JUy-9" value="&lt;font face=&quot;Times New Roman&quot;&gt;cinder-volume&lt;/font&gt;" style="rounded=1;whiteSpace=wrap;html=1;fillColor=#bac8d3;strokeColor=#23445d;fontSize=16;arcSize=40;sketch=1;curveFitting=1;jiggle=2;" parent="1" vertex="1">
          <mxGeometry x="290" y="404" width="120" height="50" as="geometry" />
        </mxCell>
        <mxCell id="IUhoo2JESZdmN7GC_JUy-10" value="RPC" style="text;html=1;align=center;verticalAlign=middle;resizable=0;points=[];autosize=1;strokeColor=none;fillColor=none;fontColor=#6C8EBF;rounded=1;sketch=1;curveFitting=1;jiggle=2;" parent="1" vertex="1">
          <mxGeometry x="349" y="380" width="50" height="30" as="geometry" />
        </mxCell>
        <mxCell id="IUhoo2JESZdmN7GC_JUy-11" value="" style="edgeStyle=segmentEdgeStyle;endArrow=classic;html=1;curved=0;rounded=0;endSize=8;startSize=8;hachureGap=4;fontFamily=Architects Daughter;fontSource=https%3A%2F%2Ffonts.googleapis.com%2Fcss%3Ffamily%3DArchitects%2BDaughter;arcSize=40;fillColor=#fad9d5;strokeColor=#ae4132;exitX=1;exitY=0.5;exitDx=0;exitDy=0;sketch=1;curveFitting=1;jiggle=2;" parent="1" source="IUhoo2JESZdmN7GC_JUy-4" target="IUhoo2JESZdmN7GC_JUy-2" edge="1">
          <mxGeometry width="50" height="50" relative="1" as="geometry">
            <mxPoint x="410" y="430" as="sourcePoint" />
            <mxPoint x="464" y="193" as="targetPoint" />
            <Array as="points">
              <mxPoint x="452" y="277" />
              <mxPoint x="452" y="193" />
            </Array>
          </mxGeometry>
        </mxCell>
      </root>
    </mxGraphModel>
  </diagram>
</mxfile>
